<svg width="764" height="881" viewBox="0 0 764 881" fill="none" xmlns="http://www.w3.org/2000/svg">
<path d="M105.202 334.088L228.262 407.026L46.0474 464.336L105.202 334.088Z" fill="#D9D9D9" fill-opacity="0.5"/>
<path d="M168.002 770.923L139.1 632.176L274.203 677.076L168.002 770.923Z" fill="#FC9905" fill-opacity="0.5"/>
<path d="M278.952 51.5172L221.293 201.037L130.899 112.843L278.952 51.5172Z" fill="#07015C" fill-opacity="0.5"/>
<path d="M615.295 214.101L715.582 260.918L647.522 319.982L615.295 214.101Z" fill="#FC9905" fill-opacity="0.5"/>
<path d="M607.155 727.749L646.855 844.141L526.207 820.326L607.155 727.749Z" fill="#FC9905" fill-opacity="0.5"/>
<path d="M721.488 519.667L599.171 506.953L671.341 407.38L721.488 519.667Z" fill="#07015C" fill-opacity="0.5"/>
<path d="M341.477 562.987L379.296 519.379L397.443 577.122L341.477 562.987Z" fill="#D9D9D9"/>
<path d="M468.09 39.6651L512.055 119.552L392.515 90.687L468.09 39.6651Z" fill="#07015C" fill-opacity="0.49"/>
<path d="M518.817 301.096L425.266 380.916L402.916 259.988L518.817 301.096Z" fill="#D9D9D9" fill-opacity="0.5"/>
</svg>
